<svg width="16" height="15" viewBox="0 0 16 15" fill="none" xmlns="http://www.w3.org/2000/svg">
<g clip-path="url(#clip0_1_1682)">
<path fill-rule="evenodd" clip-rule="evenodd" d="M8.9588 5.41667H13.2372V3.75H8.9588V5.41667ZM8.9588 11.25H13.2372V9.58333H8.9588V11.25ZM14.0928 15H2.11344C1.1722 15 0.4021 14.25 0.4021 13.3333V1.66667C0.4021 0.75 1.1722 0 2.11344 0H14.0928C15.0341 0 15.8042 0.75 15.8042 1.66667V13.3333C15.8042 14.25 15.0341 15 14.0928 15ZM2.96911 6.66667H7.24746V2.5H2.96911V6.66667ZM3.82478 3.33333H6.39179V5.83333H3.82478V3.33333ZM2.96911 12.5H7.24746V8.33333H2.96911V12.5ZM3.82478 9.16667H6.39179V11.6667H3.82478V9.16667Z" fill="#030303"/>
</g>
<defs>
<clipPath id="clip0_1_1682">
<rect width="15.4021" height="15" fill="white" transform="translate(0.4021)"/>
</clipPath>
</defs>
</svg>
