<svg width="16" height="15" viewBox="0 0 16 15" fill="none" xmlns="http://www.w3.org/2000/svg">
<path d="M14.3512 1.21691H12.8246V0.498732C12.8246 0.36646 12.77 0.239613 12.6726 0.146082C12.5753 0.052552 12.4433 0 12.3057 0C12.1681 0 12.0361 0.052552 11.9388 0.146082C11.8415 0.239613 11.7868 0.36646 11.7868 0.498732V1.21292H4.41841V0.498732C4.41841 0.36646 4.36374 0.239613 4.26642 0.146082C4.16911 0.052552 4.03713 0 3.8995 0C3.76188 0 3.6299 0.052552 3.53259 0.146082C3.43527 0.239613 3.3806 0.36646 3.3806 0.498732V1.21292H1.85503C1.47059 1.21292 1.10181 1.35937 0.829484 1.62018C0.557156 1.88099 0.403473 2.2349 0.4021 2.6044V3.85619H15.8V2.6044C15.7976 2.23629 15.644 1.884 15.3727 1.62417C15.1013 1.36433 14.7343 1.21795 14.3512 1.21691Z" fill="#030303"/>
<path d="M0.4021 13.6086C0.403473 13.9781 0.557156 14.3321 0.829484 14.5929C1.10181 14.8537 1.47059 15.0001 1.85503 15.0001H14.3512C14.7357 15.0001 15.1045 14.8537 15.3768 14.5929C15.6491 14.3321 15.8028 13.9781 15.8042 13.6086V4.93066H0.4021V13.6086ZM7.66673 11.8681C7.71287 11.3986 7.85672 10.9428 8.08973 10.5278C8.32274 10.1128 8.64017 9.74698 9.02314 9.45219C9.7413 8.72802 9.92915 8.50359 9.92915 7.93903C9.92915 7.51011 9.81395 7.17497 9.30647 7.17497C8.79898 7.17497 8.64435 7.53206 8.62048 8.10261H7.70409C7.67999 7.88932 7.70519 7.67355 7.77788 7.4707C7.85058 7.26785 7.96897 7.08292 8.12461 6.92914C8.28026 6.77535 8.46931 6.6565 8.67828 6.58105C8.88724 6.5056 9.11095 6.47542 9.33345 6.49268C9.54287 6.46457 9.75621 6.48291 9.95712 6.54629C10.158 6.60966 10.3412 6.71641 10.4925 6.85833C10.6439 7.00025 10.7595 7.17357 10.8304 7.36504C10.9013 7.55652 10.9256 7.76103 10.9016 7.96295C10.9016 8.63226 10.694 8.98738 9.91047 9.72451C9.42287 10.1283 9.0311 10.628 8.76162 11.1898H11.0624L10.9337 11.9189H7.66673V11.8681ZM5.20402 6.96749C5.58438 6.91625 5.9431 6.76662 6.24183 6.5346H6.87385V11.9209H5.92737V7.53207C5.68908 7.58541 5.44555 7.61417 5.20091 7.61785L5.20402 6.96749Z" fill="#030303"/>
</svg>
