<svg width="45.583" height="45.583" xmlns="http://www.w3.org/2000/svg">

 <g>
  <title>background</title>
  <rect fill="none" id="canvas_background" height="402" width="582" y="-1" x="-1"/>
 </g>
 <g>
  <title>Layer 1</title>
  <g id="svg_1">
   <g id="svg_2">
    <path fill="#ffffff" id="svg_3" d="m22.793,12.196c-3.361,0 -6.078,-2.729 -6.078,-6.099c0,-3.367 2.717,-6.097 6.078,-6.097c3.353,0 6.073,2.729 6.073,6.097c0,3.369 -2.721,6.099 -6.073,6.099z"/>
    <path fill="#ffffff" id="svg_4" d="m22.794,28.889c-3.361,0 -6.079,-2.729 -6.079,-6.099c0,-3.366 2.717,-6.099 6.078,-6.099c3.353,0 6.073,2.732 6.075,6.099c-0.002,3.372 -2.724,6.099 -6.074,6.099z"/>
    <path fill="#ffffff" id="svg_5" d="m22.794,45.583c-3.361,0 -6.079,-2.729 -6.079,-6.099s2.717,-6.098 6.078,-6.098c3.353,-0.002 6.073,2.729 6.073,6.098s-2.722,6.099 -6.072,6.099z"/>
   </g>
  </g>
  <g id="svg_6"/>
  <g id="svg_7"/>
  <g id="svg_8"/>
  <g id="svg_9"/>
  <g id="svg_10"/>
  <g id="svg_11"/>
  <g id="svg_12"/>
  <g id="svg_13"/>
  <g id="svg_14"/>
  <g id="svg_15"/>
  <g id="svg_16"/>
  <g id="svg_17"/>
  <g id="svg_18"/>
  <g id="svg_19"/>
  <g id="svg_20"/>
 </g>
</svg>