<svg width="16" height="11" viewBox="0 0 16 11" fill="none" xmlns="http://www.w3.org/2000/svg">
<path d="M15.2323 0.000245271H0.971834C0.896976 8.78986e-05 0.822826 0.0163595 0.753639 0.0481753C0.684453 0.0799912 0.621591 0.126701 0.568659 0.185623C0.515726 0.244546 0.473765 0.314543 0.445183 0.391559C0.416601 0.468575 0.401959 0.551124 0.402101 0.634453V10.366C0.401959 10.4493 0.416601 10.5319 0.445183 10.6089C0.473765 10.6859 0.515726 10.7559 0.568659 10.8148C0.621591 10.8737 0.684453 10.9204 0.753639 10.9522C0.822826 10.9841 0.896976 11.0004 0.971834 11.0002H15.2323C15.3072 11.0004 15.3815 10.9841 15.4508 10.9523C15.5201 10.9205 15.5831 10.8738 15.6362 10.8149C15.6893 10.7561 15.7315 10.6861 15.7603 10.6091C15.7891 10.5321 15.804 10.4494 15.8042 10.366V0.634453C15.804 0.551012 15.7891 0.468406 15.7603 0.391377C15.7315 0.314347 15.6893 0.244369 15.6362 0.185478C15.5831 0.126587 15.5201 0.0799255 15.4508 0.0481389C15.3815 0.0163523 15.3072 8.82793e-05 15.2323 0.000245271ZM14.4372 2.88578L8.4513 6.73878H7.9792L1.99542 2.88698C1.92828 2.84354 1.86948 2.7858 1.82239 2.71706C1.7753 2.64832 1.74083 2.56994 1.72095 2.48638C1.70108 2.40281 1.69618 2.31567 1.70655 2.23C1.71692 2.14432 1.74234 2.06177 1.78136 1.98703C1.82039 1.91229 1.87227 1.84686 1.93402 1.79443C1.99577 1.74201 2.06619 1.70364 2.14127 1.68152C2.21634 1.65939 2.29459 1.65394 2.37155 1.66548C2.44852 1.67702 2.52269 1.70532 2.58983 1.74876L8.21418 5.37005L13.8385 1.74876C13.9057 1.70532 13.9798 1.67702 14.0568 1.66548C14.1338 1.65394 14.212 1.65939 14.2871 1.68152C14.3622 1.70364 14.4326 1.74201 14.4943 1.79443C14.5561 1.84686 14.608 1.91229 14.647 1.98703C14.686 2.06177 14.7114 2.14432 14.7218 2.23C14.7322 2.31567 14.7273 2.40281 14.7074 2.48638C14.6875 2.56994 14.6531 2.64832 14.606 2.71706C14.5589 2.7858 14.5001 2.84354 14.4329 2.88698L14.4372 2.88578Z" fill="#030303"/>
</svg>
