<svg width="14" height="15" viewBox="0 0 14 15" fill="none" xmlns="http://www.w3.org/2000/svg">
<path d="M8.5156 9.45749C8.5156 9.43118 8.53273 9.40973 8.53273 9.38536V7.71004C8.52559 7.66336 8.51522 7.61714 8.50169 7.57165C9.1725 7.19251 9.72522 6.66291 10.1069 6.03359C10.4887 5.40426 10.6866 4.69625 10.6818 3.97732C10.6818 1.78058 9.06679 0 7.07608 0C5.08537 0 3.47033 1.77961 3.47033 3.97732C3.48748 4.69886 3.70322 5.40496 4.09776 6.03088C4.49231 6.6568 5.05305 7.18253 5.72861 7.55993C5.71264 7.60906 5.70083 7.65926 5.69329 7.71004V9.3834C5.6961 9.39688 5.69967 9.41023 5.70399 9.42338C2.65371 9.76643 0.401855 11.2751 0.401855 12.7672C0.401855 14.464 3.38899 15 7.07608 15C10.7632 15 13.7503 14.464 13.7503 12.7672C13.7492 11.3131 11.4867 9.84635 8.5156 9.45749Z" fill="#030303"/>
</svg>
