<svg width="15" height="23" viewBox="0 0 15 23" fill="none" xmlns="http://www.w3.org/2000/svg">
<path d="M13.1076 0H2.07399C1.63092 0.00106214 1.20632 0.167559 0.893028 0.463097C0.579732 0.758634 0.403226 1.15916 0.4021 1.57711V21.4229C0.403226 21.8408 0.579732 22.2414 0.893028 22.5369C1.20632 22.8324 1.63092 22.9989 2.07399 23H13.1076C13.5505 22.9989 13.9749 22.8324 14.2878 22.5368C14.6008 22.2412 14.7768 21.8406 14.7774 21.4229V1.57711C14.7768 1.15935 14.6008 0.758814 14.2878 0.463219C13.9749 0.167625 13.5505 0.00106404 13.1076 0ZM4.4528 21.1845H2.65083C2.49134 21.1845 2.33838 21.1247 2.2256 21.0183C2.11282 20.9119 2.04946 20.7677 2.04946 20.6172C2.04946 20.4668 2.11282 20.3225 2.2256 20.2161C2.33838 20.1097 2.49134 20.0499 2.65083 20.0499H4.4528C4.6123 20.0499 4.76526 20.1097 4.87804 20.2161C4.99081 20.3225 5.05417 20.4668 5.05417 20.6172C5.05417 20.7677 4.99081 20.9119 4.87804 21.0183C4.76526 21.1247 4.6123 21.1845 4.4528 21.1845ZM4.4528 19.023H2.65083C2.49162 19.023 2.33893 18.9634 2.22635 18.8572C2.11377 18.751 2.05053 18.6069 2.05053 18.4567C2.05053 18.3066 2.11377 18.1625 2.22635 18.0563C2.33893 17.9501 2.49162 17.8904 2.65083 17.8904H4.4528C4.61201 17.8904 4.7647 17.9501 4.87728 18.0563C4.98986 18.1625 5.05311 18.3066 5.05311 18.4567C5.05311 18.6069 4.98986 18.751 4.87728 18.8572C4.7647 18.9634 4.61201 19.023 4.4528 19.023ZM4.4528 16.8635H2.65083C2.49134 16.8635 2.33838 16.8037 2.2256 16.6974C2.11282 16.591 2.04946 16.4467 2.04946 16.2962C2.04946 16.1458 2.11282 16.0015 2.2256 15.8951C2.33838 15.7887 2.49134 15.729 2.65083 15.729H4.4528C4.6123 15.729 4.76526 15.7887 4.87804 15.8951C4.99081 16.0015 5.05417 16.1458 5.05417 16.2962C5.05417 16.4467 4.99081 16.591 4.87804 16.6974C4.76526 16.8037 4.6123 16.8635 4.4528 16.8635ZM4.4528 14.702H2.65083C2.49134 14.702 2.33838 14.6423 2.2256 14.5359C2.11282 14.4295 2.04946 14.2852 2.04946 14.1347C2.04946 13.9843 2.11282 13.84 2.2256 13.7336C2.33838 13.6272 2.49134 13.5674 2.65083 13.5674H4.4528C4.6123 13.5674 4.76526 13.6272 4.87804 13.7336C4.99081 13.84 5.05417 13.9843 5.05417 14.1347C5.05417 14.2852 4.99081 14.4295 4.87804 14.5359C4.76526 14.6423 4.6123 14.702 4.4528 14.702ZM8.49071 21.1855H6.69087C6.53138 21.1855 6.37842 21.1257 6.26564 21.0193C6.15287 20.913 6.08951 20.7687 6.08951 20.6182C6.08951 20.4678 6.15287 20.3235 6.26564 20.2171C6.37842 20.1107 6.53138 20.0509 6.69087 20.0509H8.49071C8.65021 20.0509 8.80317 20.1107 8.91594 20.2171C9.02872 20.3235 9.09208 20.4678 9.09208 20.6182C9.09208 20.7687 9.02872 20.913 8.91594 21.0193C8.80317 21.1257 8.65021 21.1855 8.49071 21.1855ZM8.49071 19.024H6.69087C6.61204 19.024 6.53398 19.0093 6.46115 18.9809C6.38832 18.9524 6.32214 18.9107 6.2664 18.8581C6.21065 18.8056 6.16643 18.7431 6.13627 18.6744C6.1061 18.6057 6.09057 18.5321 6.09057 18.4577C6.09057 18.3834 6.1061 18.3097 6.13627 18.241C6.16643 18.1723 6.21065 18.1099 6.2664 18.0573C6.32214 18.0047 6.38832 17.963 6.46115 17.9346C6.53398 17.9061 6.61204 17.8915 6.69087 17.8915H8.49071C8.56955 17.8915 8.64761 17.9061 8.72044 17.9346C8.79327 17.963 8.85945 18.0047 8.91519 18.0573C8.97093 18.1099 9.01515 18.1723 9.04532 18.241C9.07549 18.3097 9.09102 18.3834 9.09102 18.4577C9.09102 18.5321 9.07549 18.6057 9.04532 18.6744C9.01515 18.7431 8.97093 18.8056 8.91519 18.8581C8.85945 18.9107 8.79327 18.9524 8.72044 18.9809C8.64761 19.0093 8.56955 19.024 8.49071 19.024ZM8.49071 16.8645H6.69087C6.53138 16.8645 6.37842 16.8048 6.26564 16.6984C6.15287 16.592 6.08951 16.4477 6.08951 16.2972C6.08951 16.1468 6.15287 16.0025 6.26564 15.8961C6.37842 15.7897 6.53138 15.73 6.69087 15.73H8.49071C8.65021 15.73 8.80317 15.7897 8.91594 15.8961C9.02872 16.0025 9.09208 16.1468 9.09208 16.2972C9.09208 16.4477 9.02872 16.592 8.91594 16.6984C8.80317 16.8048 8.65021 16.8645 8.49071 16.8645ZM8.49071 14.703H6.69087C6.6119 14.703 6.5337 14.6884 6.46074 14.6598C6.38778 14.6313 6.32149 14.5895 6.26564 14.5369C6.2098 14.4842 6.1655 14.4217 6.13528 14.3528C6.10506 14.284 6.08951 14.2102 6.08951 14.1357C6.08951 14.0612 6.10506 13.9875 6.13528 13.9187C6.1655 13.8498 6.2098 13.7873 6.26564 13.7346C6.32149 13.6819 6.38778 13.6401 6.46074 13.6116C6.5337 13.5831 6.6119 13.5685 6.69087 13.5685H8.49071C8.56969 13.5685 8.64788 13.5831 8.72085 13.6116C8.79381 13.6401 8.8601 13.6819 8.91594 13.7346C8.97179 13.7873 9.01608 13.8498 9.04631 13.9187C9.07653 13.9875 9.09208 14.0612 9.09208 14.1357C9.09208 14.2102 9.07653 14.284 9.04631 14.3528C9.01608 14.4217 8.97179 14.4842 8.91594 14.5369C8.8601 14.5895 8.79381 14.6313 8.72085 14.6598C8.64788 14.6884 8.56969 14.703 8.49071 14.703ZM12.5286 21.1865H10.7267C10.5672 21.1865 10.4142 21.1267 10.3014 21.0204C10.1886 20.914 10.1253 20.7697 10.1253 20.6192C10.1253 20.4688 10.1886 20.3245 10.3014 20.2181C10.4142 20.1117 10.5672 20.052 10.7267 20.052H12.5286C12.6881 20.052 12.8411 20.1117 12.9539 20.2181C13.0666 20.3245 13.13 20.4688 13.13 20.6192C13.13 20.7697 13.0666 20.914 12.9539 21.0204C12.8411 21.1267 12.6881 21.1865 12.5286 21.1865ZM12.5286 19.025H10.7267C10.5674 19.025 10.4148 18.9653 10.3022 18.8591C10.1896 18.753 10.1264 18.6089 10.1264 18.4587C10.1264 18.3085 10.1896 18.1645 10.3022 18.0583C10.4148 17.9521 10.5674 17.8925 10.7267 17.8925H12.5286C12.6878 17.8925 12.8405 17.9521 12.9531 18.0583C13.0657 18.1645 13.1289 18.3085 13.1289 18.4587C13.1289 18.6089 13.0657 18.753 12.9531 18.8591C12.8405 18.9653 12.6878 19.025 12.5286 19.025ZM12.5286 16.8655H10.7267C10.6477 16.8655 10.5695 16.8509 10.4965 16.8223C10.4236 16.7938 10.3573 16.7521 10.3014 16.6994C10.2456 16.6467 10.2013 16.5842 10.1711 16.5153C10.1408 16.4465 10.1253 16.3727 10.1253 16.2982C10.1253 16.2237 10.1408 16.15 10.1711 16.0812C10.2013 16.0123 10.2456 15.9498 10.3014 15.8971C10.3573 15.8444 10.4236 15.8026 10.4965 15.7741C10.5695 15.7456 10.6477 15.731 10.7267 15.731H12.5286C12.6076 15.731 12.6858 15.7456 12.7588 15.7741C12.8317 15.8026 12.898 15.8444 12.9539 15.8971C13.0097 15.9498 13.054 16.0123 13.0842 16.0812C13.1144 16.15 13.13 16.2237 13.13 16.2982C13.13 16.3727 13.1144 16.4465 13.0842 16.5153C13.054 16.5842 13.0097 16.6467 12.9539 16.6994C12.898 16.7521 12.8317 16.7938 12.7588 16.8223C12.6858 16.8509 12.6076 16.8655 12.5286 16.8655ZM12.5286 14.704H10.7267C10.5672 14.704 10.4142 14.6442 10.3014 14.5379C10.1886 14.4315 10.1253 14.2872 10.1253 14.1367C10.1253 13.9863 10.1886 13.842 10.3014 13.7356C10.4142 13.6292 10.5672 13.5695 10.7267 13.5695H12.5286C12.6881 13.5695 12.8411 13.6292 12.9539 13.7356C13.0666 13.842 13.13 13.9863 13.13 14.1367C13.13 14.2872 13.0666 14.4315 12.9539 14.5379C12.8411 14.6442 12.6881 14.704 12.5286 14.704ZM13.1684 12.2619H2.01321V1.85171H13.1652L13.1684 12.2619Z" fill="#030303"/>
</svg>
