<svg width="16" height="15" viewBox="0 0 16 15" fill="none" xmlns="http://www.w3.org/2000/svg">
<path d="M8.30069 1.96636e-07C6.7775 -0.000339417 5.28841 0.439242 4.02175 1.26315C2.75509 2.08705 1.76774 3.25828 1.1846 4.62869C0.601459 5.99911 0.44872 7.50715 0.745667 8.96212C1.04261 10.4171 1.77592 11.7536 2.85285 12.8027C3.92979 13.8518 5.30199 14.5662 6.79589 14.8558C8.2898 15.1453 9.8383 14.9969 11.2456 14.4293C12.6529 13.8616 13.8557 12.9004 14.702 11.667C15.5483 10.4336 16 8.98344 16 7.50001C16.0001 6.51521 15.801 5.54001 15.4142 4.63013C15.0273 3.72026 14.4602 2.8935 13.7453 2.19706C13.0303 1.50063 12.1815 0.948153 11.2473 0.571182C10.3131 0.194211 9.31189 0.000112932 8.30069 1.96636e-07ZM11.2829 10.0189C11.246 10.0695 11.1991 10.1126 11.1451 10.1455C11.091 10.1785 11.0308 10.2007 10.9678 10.2109C10.9049 10.2211 10.8406 10.2191 10.7785 10.205C10.7163 10.1909 10.6577 10.165 10.6059 10.1288L7.75062 8.14303V3.93631C7.76099 3.81803 7.81655 3.70784 7.90633 3.62755C7.99611 3.54726 8.11356 3.5027 8.23545 3.5027C8.35734 3.5027 8.47479 3.54726 8.56457 3.62755C8.65435 3.70784 8.70994 3.81803 8.72031 3.93631V7.6571L11.1657 9.3604C11.2179 9.39604 11.2624 9.44136 11.2966 9.49379C11.3307 9.54622 11.3539 9.60473 11.3648 9.66592C11.3757 9.72711 11.3741 9.78979 11.3601 9.85037C11.346 9.91094 11.3198 9.96821 11.2829 10.0189Z" fill="#030303"/>
</svg>
