<svg width="16" height="15" viewBox="0 0 16 15" fill="none" xmlns="http://www.w3.org/2000/svg">
<g clip-path="url(#clip0_1_1653)">
<path d="M11.8337 4.185L6.75873 9.1275L3.99406 6.4425L2.90821 7.5L6.75873 11.25L12.9195 5.25L11.8337 4.185ZM8.29893 0C4.04796 0 0.5979 3.36 0.5979 7.5C0.5979 11.64 4.04796 15 8.29893 15C12.5499 15 16 11.64 16 7.5C16 3.36 12.5499 0 8.29893 0ZM8.29893 13.5C4.89508 13.5 2.13811 10.815 2.13811 7.5C2.13811 4.185 4.89508 1.5 8.29893 1.5C11.7028 1.5 14.4598 4.185 14.4598 7.5C14.4598 10.815 11.7028 13.5 8.29893 13.5Z" fill="black"/>
</g>
<defs>
<clipPath id="clip0_1_1653">
<rect width="15.4021" height="14.9549" fill="white" transform="translate(0.5979)"/>
</clipPath>
</defs>
</svg>
