<svg width="32" height="32" viewBox="0 0 32 32" fill="none" xmlns="http://www.w3.org/2000/svg">
<path d="M14.344 0.0260321C14.129 0.0420321 13.726 0.0930321 13.448 0.139032C6.45103 1.29803 1.19103 6.62403 0.0780283 13.677C-0.00797175 14.223 -0.0299717 17.382 0.0480283 18.011C0.879028 24.707 6.11303 30.313 12.779 31.647C14.681 32.027 17.086 32.04 18.938 31.679C27.674 29.976 33.264 21.718 31.646 12.907C30.418 6.22103 24.861 1.00303 17.977 0.0700321C17.5 0.00503215 15.01 -0.0249679 14.344 0.0250321V0.0260321ZM17.182 1.99503C27.413 2.97503 33.224 14.214 28.044 23.005C25.571 27.202 20.896 29.968 16.275 29.97H15.925V1.94603H16.295C16.498 1.94603 16.898 1.96803 17.183 1.99603L17.182 1.99503Z" fill="#BDAE82"/>
</svg>
